<svg height="69.018" width="65.755" xmlns="http://www.w3.org/2000/svg"><path d="m307.17101 380.86847-33.37955 40.03036 33.37955 28.9875 32.37565-29.11299zm-.62744 18.00739c2.73032 0 4.95674 2.22642 4.95674 4.95673 0 1.21954-.46013 2.33784-1.19213 3.19992l7.34099 8.53312c.82348-.61334 1.84323-.94115 2.94895-.94115 2.73031 0 4.95673 2.22642 4.95673 4.95673 0 2.73032-2.22642 4.894-4.95673 4.894-1.60917 0-2.98736-.75469-3.8901-1.94505l-5.7724 5.08222c.3421.67225.56469 1.39006.56469 2.19603 0 2.73031-2.22642 4.95673-4.95674 4.95673s-4.95674-2.22642-4.95674-4.95673c0-1.10578.3905-2.12545 1.0039-2.94895l-4.3293-3.95284c-.90291.97384-2.20639 1.56859-3.63913 1.56859-2.73031 0-4.95673-2.16368-4.95673-4.894 0-2.73031 2.22642-4.95673 4.95673-4.95673.61433 0 1.21416.10902 1.75682.31371l6.39984-7.90568c-.732-.86208-1.19213-1.98038-1.19213-3.19992 0-2.73031 2.22642-4.95673 4.95674-4.95673zm-2.38425 9.28604-6.21161 7.78019c.98663.90381 1.63133 2.19564 1.63133 3.63912 0 .68259-.12629 1.29085-.37646 1.88231l4.58028 4.26656c.78902-.53305 1.73684-.87841 2.76071-.87841 1.39702 0 2.67729.57417 3.57638 1.50584l5.83515-5.20771c-.17548-.50687-.25098-1.00205-.25098-1.56859 0-.9751.26557-1.93201.75292-2.69797l-7.59196-8.72134c-.69492.37264-1.47782.62743-2.32151.62743-.86275 0-1.67827-.23897-2.38425-.62743z" fill="#00bcf2" transform="translate(-273.791 -380.868)"/></svg>